// === Articulação: Hihat_CC4Bow ===

// --- Mic: Hihat ---
<group> group=1 seq_position=1 output=2 hicc4=19 // Round-Robin: A
<region> sample=Hihat_ClosedBow_A_vel01_mic-Hihat.wav lovel=0 hivel=14
<region> sample=Hihat_ClosedBow_A_vel02_mic-Hihat.wav lovel=15 hivel=29
<region> sample=Hihat_ClosedBow_A_vel03_mic-Hihat.wav lovel=30 hivel=44
<region> sample=Hihat_ClosedBow_A_vel04_mic-Hihat.wav lovel=45 hivel=59
<region> sample=Hihat_ClosedBow_A_vel05_mic-Hihat.wav lovel=60 hivel=74
<region> sample=Hihat_ClosedBow_A_vel06_mic-Hihat.wav lovel=75 hivel=89
<region> sample=Hihat_ClosedBow_A_vel07_mic-Hihat.wav lovel=90 hivel=104
<region> sample=Hihat_ClosedBow_A_vel08_mic-Hihat.wav lovel=105 hivel=127
<group> group=1 seq_position=2 output=2 hicc4=19 // Round-Robin: B
<region> sample=Hihat_ClosedBow_B_vel01_mic-Hihat.wav lovel=0 hivel=14
<region> sample=Hihat_ClosedBow_B_vel02_mic-Hihat.wav lovel=15 hivel=29
<region> sample=Hihat_ClosedBow_B_vel03_mic-Hihat.wav lovel=30 hivel=44
<region> sample=Hihat_ClosedBow_B_vel04_mic-Hihat.wav lovel=45 hivel=59
<region> sample=Hihat_ClosedBow_B_vel05_mic-Hihat.wav lovel=60 hivel=74
<region> sample=Hihat_ClosedBow_B_vel06_mic-Hihat.wav lovel=75 hivel=89
<region> sample=Hihat_ClosedBow_B_vel07_mic-Hihat.wav lovel=90 hivel=104
<region> sample=Hihat_ClosedBow_B_vel08_mic-Hihat.wav lovel=105 hivel=127


<group> off_by=1 seq_position=1 output=2 locc4=20 hicc4=39 // Round-Robin: A
<region> sample=Hihat_Open1Bow_A_vel01_mic-Hihat.wav lovel=0 hivel=11
<region> sample=Hihat_Open1Bow_A_vel02_mic-Hihat.wav lovel=12 hivel=23
<region> sample=Hihat_Open1Bow_A_vel03_mic-Hihat.wav lovel=24 hivel=35
<region> sample=Hihat_Open1Bow_A_vel04_mic-Hihat.wav lovel=36 hivel=47
<region> sample=Hihat_Open1Bow_A_vel05_mic-Hihat.wav lovel=48 hivel=59
<region> sample=Hihat_Open1Bow_A_vel06_mic-Hihat.wav lovel=60 hivel=71
<region> sample=Hihat_Open1Bow_A_vel07_mic-Hihat.wav lovel=72 hivel=83
<region> sample=Hihat_Open1Bow_A_vel08_mic-Hihat.wav lovel=84 hivel=95
<region> sample=Hihat_Open1Bow_A_vel09_mic-Hihat.wav lovel=96 hivel=107
<region> sample=Hihat_Open1Bow_A_vel10_mic-Hihat.wav lovel=108 hivel=127
<group> off_by=1 seq_position=2 output=2 locc4=20 hicc4=39 // Round-Robin: B
<region> sample=Hihat_Open1Bow_B_vel01_mic-Hihat.wav lovel=0 hivel=11
<region> sample=Hihat_Open1Bow_B_vel02_mic-Hihat.wav lovel=12 hivel=23
<region> sample=Hihat_Open1Bow_B_vel03_mic-Hihat.wav lovel=24 hivel=35
<region> sample=Hihat_Open1Bow_B_vel04_mic-Hihat.wav lovel=36 hivel=47
<region> sample=Hihat_Open1Bow_B_vel05_mic-Hihat.wav lovel=48 hivel=59
<region> sample=Hihat_Open1Bow_B_vel06_mic-Hihat.wav lovel=60 hivel=71
<region> sample=Hihat_Open1Bow_B_vel07_mic-Hihat.wav lovel=72 hivel=83
<region> sample=Hihat_Open1Bow_B_vel08_mic-Hihat.wav lovel=84 hivel=95
<region> sample=Hihat_Open1Bow_B_vel09_mic-Hihat.wav lovel=96 hivel=107
<region> sample=Hihat_Open1Bow_B_vel10_mic-Hihat.wav lovel=108 hivel=127


<group> off_by=1 seq_position=1 output=2 locc4=40 hicc4=59 // Round-Robin: A
<region> sample=Hihat_Open2Bow_A_vel01_mic-Hihat.wav lovel=0 hivel=14
<region> sample=Hihat_Open2Bow_A_vel02_mic-Hihat.wav lovel=15 hivel=29
<region> sample=Hihat_Open2Bow_A_vel03_mic-Hihat.wav lovel=30 hivel=44
<region> sample=Hihat_Open2Bow_A_vel04_mic-Hihat.wav lovel=45 hivel=59
<region> sample=Hihat_Open2Bow_A_vel05_mic-Hihat.wav lovel=60 hivel=74
<region> sample=Hihat_Open2Bow_A_vel06_mic-Hihat.wav lovel=75 hivel=89
<region> sample=Hihat_Open2Bow_A_vel07_mic-Hihat.wav lovel=90 hivel=104
<region> sample=Hihat_Open2Bow_A_vel08_mic-Hihat.wav lovel=105 hivel=127
<group> off_by=1 seq_position=2 output=2 locc4=40 hicc4=59 // Round-Robin: B
<region> sample=Hihat_Open2Bow_B_vel01_mic-Hihat.wav lovel=0 hivel=14
<region> sample=Hihat_Open2Bow_B_vel02_mic-Hihat.wav lovel=15 hivel=29
<region> sample=Hihat_Open2Bow_B_vel03_mic-Hihat.wav lovel=30 hivel=44
<region> sample=Hihat_Open2Bow_B_vel04_mic-Hihat.wav lovel=45 hivel=59
<region> sample=Hihat_Open2Bow_B_vel05_mic-Hihat.wav lovel=60 hivel=74
<region> sample=Hihat_Open2Bow_B_vel06_mic-Hihat.wav lovel=75 hivel=89
<region> sample=Hihat_Open2Bow_B_vel07_mic-Hihat.wav lovel=90 hivel=104
<region> sample=Hihat_Open2Bow_B_vel08_mic-Hihat.wav lovel=105 hivel=127


<group> off_by=1 seq_position=1 output=2 locc4=60 hicc4=79 // Round-Robin: A
<region> sample=Hihat_Open3Bow_A_vel01_mic-Hihat.wav lovel=0 hivel=11
<region> sample=Hihat_Open3Bow_A_vel02_mic-Hihat.wav lovel=12 hivel=23
<region> sample=Hihat_Open3Bow_A_vel03_mic-Hihat.wav lovel=24 hivel=35
<region> sample=Hihat_Open3Bow_A_vel04_mic-Hihat.wav lovel=36 hivel=47
<region> sample=Hihat_Open3Bow_A_vel05_mic-Hihat.wav lovel=48 hivel=59
<region> sample=Hihat_Open3Bow_A_vel06_mic-Hihat.wav lovel=60 hivel=71
<region> sample=Hihat_Open3Bow_A_vel07_mic-Hihat.wav lovel=72 hivel=83
<region> sample=Hihat_Open3Bow_A_vel08_mic-Hihat.wav lovel=84 hivel=95
<region> sample=Hihat_Open3Bow_A_vel09_mic-Hihat.wav lovel=96 hivel=107
<region> sample=Hihat_Open3Bow_A_vel10_mic-Hihat.wav lovel=108 hivel=127
<group> off_by=1 seq_position=2 output=2 locc4=60 hicc4=79 // Round-Robin: B
<region> sample=Hihat_Open3Bow_B_vel01_mic-Hihat.wav lovel=0 hivel=11
<region> sample=Hihat_Open3Bow_B_vel02_mic-Hihat.wav lovel=12 hivel=23
<region> sample=Hihat_Open3Bow_B_vel03_mic-Hihat.wav lovel=24 hivel=35
<region> sample=Hihat_Open3Bow_B_vel04_mic-Hihat.wav lovel=36 hivel=47
<region> sample=Hihat_Open3Bow_B_vel05_mic-Hihat.wav lovel=48 hivel=59
<region> sample=Hihat_Open3Bow_B_vel06_mic-Hihat.wav lovel=60 hivel=71
<region> sample=Hihat_Open3Bow_B_vel07_mic-Hihat.wav lovel=72 hivel=83
<region> sample=Hihat_Open3Bow_B_vel08_mic-Hihat.wav lovel=84 hivel=95
<region> sample=Hihat_Open3Bow_B_vel09_mic-Hihat.wav lovel=96 hivel=107
<region> sample=Hihat_Open3Bow_B_vel10_mic-Hihat.wav lovel=108 hivel=127


<group> off_by=1 seq_position=1 output=2 locc4=80 hicc4=99 // Round-Robin: A
<region> sample=Hihat_Open4Bow_A_vel01_mic-Hihat.wav lovel=0 hivel=11
<region> sample=Hihat_Open4Bow_A_vel02_mic-Hihat.wav lovel=12 hivel=23
<region> sample=Hihat_Open4Bow_A_vel03_mic-Hihat.wav lovel=24 hivel=35
<region> sample=Hihat_Open4Bow_A_vel04_mic-Hihat.wav lovel=36 hivel=47
<region> sample=Hihat_Open4Bow_A_vel05_mic-Hihat.wav lovel=48 hivel=59
<region> sample=Hihat_Open4Bow_A_vel06_mic-Hihat.wav lovel=60 hivel=71
<region> sample=Hihat_Open4Bow_A_vel07_mic-Hihat.wav lovel=72 hivel=83
<region> sample=Hihat_Open4Bow_A_vel08_mic-Hihat.wav lovel=84 hivel=95
<region> sample=Hihat_Open4Bow_A_vel09_mic-Hihat.wav lovel=96 hivel=107
<region> sample=Hihat_Open4Bow_A_vel10_mic-Hihat.wav lovel=108 hivel=127
<group> off_by=1 seq_position=2 output=2 locc4=80 hicc4=99 // Round-Robin: B
<region> sample=Hihat_Open4Bow_B_vel01_mic-Hihat.wav lovel=0 hivel=11
<region> sample=Hihat_Open4Bow_B_vel02_mic-Hihat.wav lovel=12 hivel=23
<region> sample=Hihat_Open4Bow_B_vel03_mic-Hihat.wav lovel=24 hivel=35
<region> sample=Hihat_Open4Bow_B_vel04_mic-Hihat.wav lovel=36 hivel=47
<region> sample=Hihat_Open4Bow_B_vel05_mic-Hihat.wav lovel=48 hivel=59
<region> sample=Hihat_Open4Bow_B_vel06_mic-Hihat.wav lovel=60 hivel=71
<region> sample=Hihat_Open4Bow_B_vel07_mic-Hihat.wav lovel=72 hivel=83
<region> sample=Hihat_Open4Bow_B_vel08_mic-Hihat.wav lovel=84 hivel=95
<region> sample=Hihat_Open4Bow_B_vel09_mic-Hihat.wav lovel=96 hivel=107
<region> sample=Hihat_Open4Bow_B_vel10_mic-Hihat.wav lovel=108 hivel=127


<group> off_by=1 seq_position=1 output=2 locc4=100 // Round-Robin: A
<region> sample=Hihat_OpenFullBow_A_vel01_mic-Hihat.wav lovel=0 hivel=13
<region> sample=Hihat_OpenFullBow_A_vel02_mic-Hihat.wav lovel=14 hivel=27
<region> sample=Hihat_OpenFullBow_A_vel03_mic-Hihat.wav lovel=28 hivel=41
<region> sample=Hihat_OpenFullBow_A_vel04_mic-Hihat.wav lovel=42 hivel=55
<region> sample=Hihat_OpenFullBow_A_vel05_mic-Hihat.wav lovel=56 hivel=69
<region> sample=Hihat_OpenFullBow_A_vel06_mic-Hihat.wav lovel=70 hivel=83
<region> sample=Hihat_OpenFullBow_A_vel07_mic-Hihat.wav lovel=84 hivel=97
<region> sample=Hihat_OpenFullBow_A_vel08_mic-Hihat.wav lovel=98 hivel=111
<region> sample=Hihat_OpenFullBow_A_vel09_mic-Hihat.wav lovel=112 hivel=127
<group> off_by=1 seq_position=2 output=2 locc4=100 // Round-Robin: B
<region> sample=Hihat_OpenFullBow_B_vel01_mic-Hihat.wav lovel=0 hivel=13
<region> sample=Hihat_OpenFullBow_B_vel02_mic-Hihat.wav lovel=14 hivel=27
<region> sample=Hihat_OpenFullBow_B_vel03_mic-Hihat.wav lovel=28 hivel=41
<region> sample=Hihat_OpenFullBow_B_vel04_mic-Hihat.wav lovel=42 hivel=55
<region> sample=Hihat_OpenFullBow_B_vel05_mic-Hihat.wav lovel=56 hivel=69
<region> sample=Hihat_OpenFullBow_B_vel06_mic-Hihat.wav lovel=70 hivel=83
<region> sample=Hihat_OpenFullBow_B_vel07_mic-Hihat.wav lovel=84 hivel=97
<region> sample=Hihat_OpenFullBow_B_vel08_mic-Hihat.wav lovel=98 hivel=111
<region> sample=Hihat_OpenFullBow_B_vel09_mic-Hihat.wav lovel=112 hivel=127


// --- Mic: Overhead_L ---
<group> group=1 seq_position=1 output=2 hicc4=19 // Round-Robin: A
<region> sample=Hihat_ClosedBow_A_vel01_mic-Overhead_L.wav lovel=0 hivel=14
<region> sample=Hihat_ClosedBow_A_vel02_mic-Overhead_L.wav lovel=15 hivel=29
<region> sample=Hihat_ClosedBow_A_vel03_mic-Overhead_L.wav lovel=30 hivel=44
<region> sample=Hihat_ClosedBow_A_vel04_mic-Overhead_L.wav lovel=45 hivel=59
<region> sample=Hihat_ClosedBow_A_vel05_mic-Overhead_L.wav lovel=60 hivel=74
<region> sample=Hihat_ClosedBow_A_vel06_mic-Overhead_L.wav lovel=75 hivel=89
<region> sample=Hihat_ClosedBow_A_vel07_mic-Overhead_L.wav lovel=90 hivel=104
<region> sample=Hihat_ClosedBow_A_vel08_mic-Overhead_L.wav lovel=105 hivel=127
<group> group=1 seq_position=2 output=2 hicc4=19 // Round-Robin: B
<region> sample=Hihat_ClosedBow_B_vel01_mic-Overhead_L.wav lovel=0 hivel=14
<region> sample=Hihat_ClosedBow_B_vel02_mic-Overhead_L.wav lovel=15 hivel=29
<region> sample=Hihat_ClosedBow_B_vel03_mic-Overhead_L.wav lovel=30 hivel=44
<region> sample=Hihat_ClosedBow_B_vel04_mic-Overhead_L.wav lovel=45 hivel=59
<region> sample=Hihat_ClosedBow_B_vel05_mic-Overhead_L.wav lovel=60 hivel=74
<region> sample=Hihat_ClosedBow_B_vel06_mic-Overhead_L.wav lovel=75 hivel=89
<region> sample=Hihat_ClosedBow_B_vel07_mic-Overhead_L.wav lovel=90 hivel=104
<region> sample=Hihat_ClosedBow_B_vel08_mic-Overhead_L.wav lovel=105 hivel=127


<group> off_by=1 seq_position=1 output=2 locc4=20 hicc4=39 // Round-Robin: A
<region> sample=Hihat_Open1Bow_A_vel01_mic-Overhead_L.wav lovel=0 hivel=11
<region> sample=Hihat_Open1Bow_A_vel02_mic-Overhead_L.wav lovel=12 hivel=23
<region> sample=Hihat_Open1Bow_A_vel03_mic-Overhead_L.wav lovel=24 hivel=35
<region> sample=Hihat_Open1Bow_A_vel04_mic-Overhead_L.wav lovel=36 hivel=47
<region> sample=Hihat_Open1Bow_A_vel05_mic-Overhead_L.wav lovel=48 hivel=59
<region> sample=Hihat_Open1Bow_A_vel06_mic-Overhead_L.wav lovel=60 hivel=71
<region> sample=Hihat_Open1Bow_A_vel07_mic-Overhead_L.wav lovel=72 hivel=83
<region> sample=Hihat_Open1Bow_A_vel08_mic-Overhead_L.wav lovel=84 hivel=95
<region> sample=Hihat_Open1Bow_A_vel09_mic-Overhead_L.wav lovel=96 hivel=107
<region> sample=Hihat_Open1Bow_A_vel10_mic-Overhead_L.wav lovel=108 hivel=127
<group> off_by=1 seq_position=2 output=2 locc4=20 hicc4=39 // Round-Robin: B
<region> sample=Hihat_Open1Bow_B_vel01_mic-Overhead_L.wav lovel=0 hivel=11
<region> sample=Hihat_Open1Bow_B_vel02_mic-Overhead_L.wav lovel=12 hivel=23
<region> sample=Hihat_Open1Bow_B_vel03_mic-Overhead_L.wav lovel=24 hivel=35
<region> sample=Hihat_Open1Bow_B_vel04_mic-Overhead_L.wav lovel=36 hivel=47
<region> sample=Hihat_Open1Bow_B_vel05_mic-Overhead_L.wav lovel=48 hivel=59
<region> sample=Hihat_Open1Bow_B_vel06_mic-Overhead_L.wav lovel=60 hivel=71
<region> sample=Hihat_Open1Bow_B_vel07_mic-Overhead_L.wav lovel=72 hivel=83
<region> sample=Hihat_Open1Bow_B_vel08_mic-Overhead_L.wav lovel=84 hivel=95
<region> sample=Hihat_Open1Bow_B_vel09_mic-Overhead_L.wav lovel=96 hivel=107
<region> sample=Hihat_Open1Bow_B_vel10_mic-Overhead_L.wav lovel=108 hivel=127


<group> off_by=1 seq_position=1 output=2 locc4=40 hicc4=59 // Round-Robin: A
<region> sample=Hihat_Open2Bow_A_vel01_mic-Overhead_L.wav lovel=0 hivel=14
<region> sample=Hihat_Open2Bow_A_vel02_mic-Overhead_L.wav lovel=15 hivel=29
<region> sample=Hihat_Open2Bow_A_vel03_mic-Overhead_L.wav lovel=30 hivel=44
<region> sample=Hihat_Open2Bow_A_vel04_mic-Overhead_L.wav lovel=45 hivel=59
<region> sample=Hihat_Open2Bow_A_vel05_mic-Overhead_L.wav lovel=60 hivel=74
<region> sample=Hihat_Open2Bow_A_vel06_mic-Overhead_L.wav lovel=75 hivel=89
<region> sample=Hihat_Open2Bow_A_vel07_mic-Overhead_L.wav lovel=90 hivel=104
<region> sample=Hihat_Open2Bow_A_vel08_mic-Overhead_L.wav lovel=105 hivel=127
<group> off_by=1 seq_position=2 output=2 locc4=40 hicc4=59 // Round-Robin: B
<region> sample=Hihat_Open2Bow_B_vel01_mic-Overhead_L.wav lovel=0 hivel=14
<region> sample=Hihat_Open2Bow_B_vel02_mic-Overhead_L.wav lovel=15 hivel=29
<region> sample=Hihat_Open2Bow_B_vel03_mic-Overhead_L.wav lovel=30 hivel=44
<region> sample=Hihat_Open2Bow_B_vel04_mic-Overhead_L.wav lovel=45 hivel=59
<region> sample=Hihat_Open2Bow_B_vel05_mic-Overhead_L.wav lovel=60 hivel=74
<region> sample=Hihat_Open2Bow_B_vel06_mic-Overhead_L.wav lovel=75 hivel=89
<region> sample=Hihat_Open2Bow_B_vel07_mic-Overhead_L.wav lovel=90 hivel=104
<region> sample=Hihat_Open2Bow_B_vel08_mic-Overhead_L.wav lovel=105 hivel=127


<group> off_by=1 seq_position=1 output=2 locc4=60 hicc4=79 // Round-Robin: A
<region> sample=Hihat_Open3Bow_A_vel01_mic-Overhead_L.wav lovel=0 hivel=11
<region> sample=Hihat_Open3Bow_A_vel02_mic-Overhead_L.wav lovel=12 hivel=23
<region> sample=Hihat_Open3Bow_A_vel03_mic-Overhead_L.wav lovel=24 hivel=35
<region> sample=Hihat_Open3Bow_A_vel04_mic-Overhead_L.wav lovel=36 hivel=47
<region> sample=Hihat_Open3Bow_A_vel05_mic-Overhead_L.wav lovel=48 hivel=59
<region> sample=Hihat_Open3Bow_A_vel06_mic-Overhead_L.wav lovel=60 hivel=71
<region> sample=Hihat_Open3Bow_A_vel07_mic-Overhead_L.wav lovel=72 hivel=83
<region> sample=Hihat_Open3Bow_A_vel08_mic-Overhead_L.wav lovel=84 hivel=95
<region> sample=Hihat_Open3Bow_A_vel09_mic-Overhead_L.wav lovel=96 hivel=107
<region> sample=Hihat_Open3Bow_A_vel10_mic-Overhead_L.wav lovel=108 hivel=127
<group> off_by=1 seq_position=2 output=2 locc4=60 hicc4=79 // Round-Robin: B
<region> sample=Hihat_Open3Bow_B_vel01_mic-Overhead_L.wav lovel=0 hivel=11
<region> sample=Hihat_Open3Bow_B_vel02_mic-Overhead_L.wav lovel=12 hivel=23
<region> sample=Hihat_Open3Bow_B_vel03_mic-Overhead_L.wav lovel=24 hivel=35
<region> sample=Hihat_Open3Bow_B_vel04_mic-Overhead_L.wav lovel=36 hivel=47
<region> sample=Hihat_Open3Bow_B_vel05_mic-Overhead_L.wav lovel=48 hivel=59
<region> sample=Hihat_Open3Bow_B_vel06_mic-Overhead_L.wav lovel=60 hivel=71
<region> sample=Hihat_Open3Bow_B_vel07_mic-Overhead_L.wav lovel=72 hivel=83
<region> sample=Hihat_Open3Bow_B_vel08_mic-Overhead_L.wav lovel=84 hivel=95
<region> sample=Hihat_Open3Bow_B_vel09_mic-Overhead_L.wav lovel=96 hivel=107
<region> sample=Hihat_Open3Bow_B_vel10_mic-Overhead_L.wav lovel=108 hivel=127


<group> off_by=1 seq_position=1 output=2 locc4=80 hicc4=99 // Round-Robin: A
<region> sample=Hihat_Open4Bow_A_vel01_mic-Overhead_L.wav lovel=0 hivel=11
<region> sample=Hihat_Open4Bow_A_vel02_mic-Overhead_L.wav lovel=12 hivel=23
<region> sample=Hihat_Open4Bow_A_vel03_mic-Overhead_L.wav lovel=24 hivel=35
<region> sample=Hihat_Open4Bow_A_vel04_mic-Overhead_L.wav lovel=36 hivel=47
<region> sample=Hihat_Open4Bow_A_vel05_mic-Overhead_L.wav lovel=48 hivel=59
<region> sample=Hihat_Open4Bow_A_vel06_mic-Overhead_L.wav lovel=60 hivel=71
<region> sample=Hihat_Open4Bow_A_vel07_mic-Overhead_L.wav lovel=72 hivel=83
<region> sample=Hihat_Open4Bow_A_vel08_mic-Overhead_L.wav lovel=84 hivel=95
<region> sample=Hihat_Open4Bow_A_vel09_mic-Overhead_L.wav lovel=96 hivel=107
<region> sample=Hihat_Open4Bow_A_vel10_mic-Overhead_L.wav lovel=108 hivel=127
<group> off_by=1 seq_position=2 output=2 locc4=80 hicc4=99 // Round-Robin: B
<region> sample=Hihat_Open4Bow_B_vel01_mic-Overhead_L.wav lovel=0 hivel=11
<region> sample=Hihat_Open4Bow_B_vel02_mic-Overhead_L.wav lovel=12 hivel=23
<region> sample=Hihat_Open4Bow_B_vel03_mic-Overhead_L.wav lovel=24 hivel=35
<region> sample=Hihat_Open4Bow_B_vel04_mic-Overhead_L.wav lovel=36 hivel=47
<region> sample=Hihat_Open4Bow_B_vel05_mic-Overhead_L.wav lovel=48 hivel=59
<region> sample=Hihat_Open4Bow_B_vel06_mic-Overhead_L.wav lovel=60 hivel=71
<region> sample=Hihat_Open4Bow_B_vel07_mic-Overhead_L.wav lovel=72 hivel=83
<region> sample=Hihat_Open4Bow_B_vel08_mic-Overhead_L.wav lovel=84 hivel=95
<region> sample=Hihat_Open4Bow_B_vel09_mic-Overhead_L.wav lovel=96 hivel=107
<region> sample=Hihat_Open4Bow_B_vel10_mic-Overhead_L.wav lovel=108 hivel=127


<group> off_by=1 seq_position=1 output=2 locc4=100 // Round-Robin: A
<region> sample=Hihat_OpenFullBow_A_vel01_mic-Overhead_L.wav lovel=0 hivel=13
<region> sample=Hihat_OpenFullBow_A_vel02_mic-Overhead_L.wav lovel=14 hivel=27
<region> sample=Hihat_OpenFullBow_A_vel03_mic-Overhead_L.wav lovel=28 hivel=41
<region> sample=Hihat_OpenFullBow_A_vel04_mic-Overhead_L.wav lovel=42 hivel=55
<region> sample=Hihat_OpenFullBow_A_vel05_mic-Overhead_L.wav lovel=56 hivel=69
<region> sample=Hihat_OpenFullBow_A_vel06_mic-Overhead_L.wav lovel=70 hivel=83
<region> sample=Hihat_OpenFullBow_A_vel07_mic-Overhead_L.wav lovel=84 hivel=97
<region> sample=Hihat_OpenFullBow_A_vel08_mic-Overhead_L.wav lovel=98 hivel=111
<region> sample=Hihat_OpenFullBow_A_vel09_mic-Overhead_L.wav lovel=112 hivel=127
<group> off_by=1 seq_position=2 output=2 locc4=100 // Round-Robin: B
<region> sample=Hihat_OpenFullBow_B_vel01_mic-Overhead_L.wav lovel=0 hivel=13
<region> sample=Hihat_OpenFullBow_B_vel02_mic-Overhead_L.wav lovel=14 hivel=27
<region> sample=Hihat_OpenFullBow_B_vel03_mic-Overhead_L.wav lovel=28 hivel=41
<region> sample=Hihat_OpenFullBow_B_vel04_mic-Overhead_L.wav lovel=42 hivel=55
<region> sample=Hihat_OpenFullBow_B_vel05_mic-Overhead_L.wav lovel=56 hivel=69
<region> sample=Hihat_OpenFullBow_B_vel06_mic-Overhead_L.wav lovel=70 hivel=83
<region> sample=Hihat_OpenFullBow_B_vel07_mic-Overhead_L.wav lovel=84 hivel=97
<region> sample=Hihat_OpenFullBow_B_vel08_mic-Overhead_L.wav lovel=98 hivel=111
<region> sample=Hihat_OpenFullBow_B_vel09_mic-Overhead_L.wav lovel=112 hivel=127


// --- Mic: Overhead_R ---
<group> group=1 seq_position=1 output=2 hicc4=19 // Round-Robin: A
<region> sample=Hihat_ClosedBow_A_vel01_mic-Overhead_R.wav lovel=0 hivel=14
<region> sample=Hihat_ClosedBow_A_vel02_mic-Overhead_R.wav lovel=15 hivel=29
<region> sample=Hihat_ClosedBow_A_vel03_mic-Overhead_R.wav lovel=30 hivel=44
<region> sample=Hihat_ClosedBow_A_vel04_mic-Overhead_R.wav lovel=45 hivel=59
<region> sample=Hihat_ClosedBow_A_vel05_mic-Overhead_R.wav lovel=60 hivel=74
<region> sample=Hihat_ClosedBow_A_vel06_mic-Overhead_R.wav lovel=75 hivel=89
<region> sample=Hihat_ClosedBow_A_vel07_mic-Overhead_R.wav lovel=90 hivel=104
<region> sample=Hihat_ClosedBow_A_vel08_mic-Overhead_R.wav lovel=105 hivel=127
<group> group=1 seq_position=2 output=2 hicc4=19 // Round-Robin: B
<region> sample=Hihat_ClosedBow_B_vel01_mic-Overhead_R.wav lovel=0 hivel=14
<region> sample=Hihat_ClosedBow_B_vel02_mic-Overhead_R.wav lovel=15 hivel=29
<region> sample=Hihat_ClosedBow_B_vel03_mic-Overhead_R.wav lovel=30 hivel=44
<region> sample=Hihat_ClosedBow_B_vel04_mic-Overhead_R.wav lovel=45 hivel=59
<region> sample=Hihat_ClosedBow_B_vel05_mic-Overhead_R.wav lovel=60 hivel=74
<region> sample=Hihat_ClosedBow_B_vel06_mic-Overhead_R.wav lovel=75 hivel=89
<region> sample=Hihat_ClosedBow_B_vel07_mic-Overhead_R.wav lovel=90 hivel=104
<region> sample=Hihat_ClosedBow_B_vel08_mic-Overhead_R.wav lovel=105 hivel=127


<group> off_by=1 seq_position=1 output=2 locc4=20 hicc4=39 // Round-Robin: A
<region> sample=Hihat_Open1Bow_A_vel01_mic-Overhead_R.wav lovel=0 hivel=11
<region> sample=Hihat_Open1Bow_A_vel02_mic-Overhead_R.wav lovel=12 hivel=23
<region> sample=Hihat_Open1Bow_A_vel03_mic-Overhead_R.wav lovel=24 hivel=35
<region> sample=Hihat_Open1Bow_A_vel04_mic-Overhead_R.wav lovel=36 hivel=47
<region> sample=Hihat_Open1Bow_A_vel05_mic-Overhead_R.wav lovel=48 hivel=59
<region> sample=Hihat_Open1Bow_A_vel06_mic-Overhead_R.wav lovel=60 hivel=71
<region> sample=Hihat_Open1Bow_A_vel07_mic-Overhead_R.wav lovel=72 hivel=83
<region> sample=Hihat_Open1Bow_A_vel08_mic-Overhead_R.wav lovel=84 hivel=95
<region> sample=Hihat_Open1Bow_A_vel09_mic-Overhead_R.wav lovel=96 hivel=107
<region> sample=Hihat_Open1Bow_A_vel10_mic-Overhead_R.wav lovel=108 hivel=127
<group> off_by=1 seq_position=2 output=2 locc4=20 hicc4=39 // Round-Robin: B
<region> sample=Hihat_Open1Bow_B_vel01_mic-Overhead_R.wav lovel=0 hivel=11
<region> sample=Hihat_Open1Bow_B_vel02_mic-Overhead_R.wav lovel=12 hivel=23
<region> sample=Hihat_Open1Bow_B_vel03_mic-Overhead_R.wav lovel=24 hivel=35
<region> sample=Hihat_Open1Bow_B_vel04_mic-Overhead_R.wav lovel=36 hivel=47
<region> sample=Hihat_Open1Bow_B_vel05_mic-Overhead_R.wav lovel=48 hivel=59
<region> sample=Hihat_Open1Bow_B_vel06_mic-Overhead_R.wav lovel=60 hivel=71
<region> sample=Hihat_Open1Bow_B_vel07_mic-Overhead_R.wav lovel=72 hivel=83
<region> sample=Hihat_Open1Bow_B_vel08_mic-Overhead_R.wav lovel=84 hivel=95
<region> sample=Hihat_Open1Bow_B_vel09_mic-Overhead_R.wav lovel=96 hivel=107
<region> sample=Hihat_Open1Bow_B_vel10_mic-Overhead_R.wav lovel=108 hivel=127


<group> off_by=1 seq_position=1 output=2 locc4=40 hicc4=59 // Round-Robin: A
<region> sample=Hihat_Open2Bow_A_vel01_mic-Overhead_R.wav lovel=0 hivel=14
<region> sample=Hihat_Open2Bow_A_vel02_mic-Overhead_R.wav lovel=15 hivel=29
<region> sample=Hihat_Open2Bow_A_vel03_mic-Overhead_R.wav lovel=30 hivel=44
<region> sample=Hihat_Open2Bow_A_vel04_mic-Overhead_R.wav lovel=45 hivel=59
<region> sample=Hihat_Open2Bow_A_vel05_mic-Overhead_R.wav lovel=60 hivel=74
<region> sample=Hihat_Open2Bow_A_vel06_mic-Overhead_R.wav lovel=75 hivel=89
<region> sample=Hihat_Open2Bow_A_vel07_mic-Overhead_R.wav lovel=90 hivel=104
<region> sample=Hihat_Open2Bow_A_vel08_mic-Overhead_R.wav lovel=105 hivel=127
<group> off_by=1 seq_position=2 output=2 locc4=40 hicc4=59 // Round-Robin: B
<region> sample=Hihat_Open2Bow_B_vel01_mic-Overhead_R.wav lovel=0 hivel=14
<region> sample=Hihat_Open2Bow_B_vel02_mic-Overhead_R.wav lovel=15 hivel=29
<region> sample=Hihat_Open2Bow_B_vel03_mic-Overhead_R.wav lovel=30 hivel=44
<region> sample=Hihat_Open2Bow_B_vel04_mic-Overhead_R.wav lovel=45 hivel=59
<region> sample=Hihat_Open2Bow_B_vel05_mic-Overhead_R.wav lovel=60 hivel=74
<region> sample=Hihat_Open2Bow_B_vel06_mic-Overhead_R.wav lovel=75 hivel=89
<region> sample=Hihat_Open2Bow_B_vel07_mic-Overhead_R.wav lovel=90 hivel=104
<region> sample=Hihat_Open2Bow_B_vel08_mic-Overhead_R.wav lovel=105 hivel=127


<group> off_by=1 seq_position=1 output=2 locc4=60 hicc4=79 // Round-Robin: A
<region> sample=Hihat_Open3Bow_A_vel01_mic-Overhead_R.wav lovel=0 hivel=11
<region> sample=Hihat_Open3Bow_A_vel02_mic-Overhead_R.wav lovel=12 hivel=23
<region> sample=Hihat_Open3Bow_A_vel03_mic-Overhead_R.wav lovel=24 hivel=35
<region> sample=Hihat_Open3Bow_A_vel04_mic-Overhead_R.wav lovel=36 hivel=47
<region> sample=Hihat_Open3Bow_A_vel05_mic-Overhead_R.wav lovel=48 hivel=59
<region> sample=Hihat_Open3Bow_A_vel06_mic-Overhead_R.wav lovel=60 hivel=71
<region> sample=Hihat_Open3Bow_A_vel07_mic-Overhead_R.wav lovel=72 hivel=83
<region> sample=Hihat_Open3Bow_A_vel08_mic-Overhead_R.wav lovel=84 hivel=95
<region> sample=Hihat_Open3Bow_A_vel09_mic-Overhead_R.wav lovel=96 hivel=107
<region> sample=Hihat_Open3Bow_A_vel10_mic-Overhead_R.wav lovel=108 hivel=127
<group> off_by=1 seq_position=2 output=2 locc4=60 hicc4=79 // Round-Robin: B
<region> sample=Hihat_Open3Bow_B_vel01_mic-Overhead_R.wav lovel=0 hivel=11
<region> sample=Hihat_Open3Bow_B_vel02_mic-Overhead_R.wav lovel=12 hivel=23
<region> sample=Hihat_Open3Bow_B_vel03_mic-Overhead_R.wav lovel=24 hivel=35
<region> sample=Hihat_Open3Bow_B_vel04_mic-Overhead_R.wav lovel=36 hivel=47
<region> sample=Hihat_Open3Bow_B_vel05_mic-Overhead_R.wav lovel=48 hivel=59
<region> sample=Hihat_Open3Bow_B_vel06_mic-Overhead_R.wav lovel=60 hivel=71
<region> sample=Hihat_Open3Bow_B_vel07_mic-Overhead_R.wav lovel=72 hivel=83
<region> sample=Hihat_Open3Bow_B_vel08_mic-Overhead_R.wav lovel=84 hivel=95
<region> sample=Hihat_Open3Bow_B_vel09_mic-Overhead_R.wav lovel=96 hivel=107
<region> sample=Hihat_Open3Bow_B_vel10_mic-Overhead_R.wav lovel=108 hivel=127


<group> off_by=1 seq_position=1 output=2 locc4=80 hicc4=99 // Round-Robin: A
<region> sample=Hihat_Open4Bow_A_vel01_mic-Overhead_R.wav lovel=0 hivel=11
<region> sample=Hihat_Open4Bow_A_vel02_mic-Overhead_R.wav lovel=12 hivel=23
<region> sample=Hihat_Open4Bow_A_vel03_mic-Overhead_R.wav lovel=24 hivel=35
<region> sample=Hihat_Open4Bow_A_vel04_mic-Overhead_R.wav lovel=36 hivel=47
<region> sample=Hihat_Open4Bow_A_vel05_mic-Overhead_R.wav lovel=48 hivel=59
<region> sample=Hihat_Open4Bow_A_vel06_mic-Overhead_R.wav lovel=60 hivel=71
<region> sample=Hihat_Open4Bow_A_vel07_mic-Overhead_R.wav lovel=72 hivel=83
<region> sample=Hihat_Open4Bow_A_vel08_mic-Overhead_R.wav lovel=84 hivel=95
<region> sample=Hihat_Open4Bow_A_vel09_mic-Overhead_R.wav lovel=96 hivel=107
<region> sample=Hihat_Open4Bow_A_vel10_mic-Overhead_R.wav lovel=108 hivel=127
<group> off_by=1 seq_position=2 output=2 locc4=80 hicc4=99 // Round-Robin: B
<region> sample=Hihat_Open4Bow_B_vel01_mic-Overhead_R.wav lovel=0 hivel=11
<region> sample=Hihat_Open4Bow_B_vel02_mic-Overhead_R.wav lovel=12 hivel=23
<region> sample=Hihat_Open4Bow_B_vel03_mic-Overhead_R.wav lovel=24 hivel=35
<region> sample=Hihat_Open4Bow_B_vel04_mic-Overhead_R.wav lovel=36 hivel=47
<region> sample=Hihat_Open4Bow_B_vel05_mic-Overhead_R.wav lovel=48 hivel=59
<region> sample=Hihat_Open4Bow_B_vel06_mic-Overhead_R.wav lovel=60 hivel=71
<region> sample=Hihat_Open4Bow_B_vel07_mic-Overhead_R.wav lovel=72 hivel=83
<region> sample=Hihat_Open4Bow_B_vel08_mic-Overhead_R.wav lovel=84 hivel=95
<region> sample=Hihat_Open4Bow_B_vel09_mic-Overhead_R.wav lovel=96 hivel=107
<region> sample=Hihat_Open4Bow_B_vel10_mic-Overhead_R.wav lovel=108 hivel=127


<group> off_by=1 seq_position=1 output=2 locc4=100 // Round-Robin: A
<region> sample=Hihat_OpenFullBow_A_vel01_mic-Overhead_R.wav lovel=0 hivel=13
<region> sample=Hihat_OpenFullBow_A_vel02_mic-Overhead_R.wav lovel=14 hivel=27
<region> sample=Hihat_OpenFullBow_A_vel03_mic-Overhead_R.wav lovel=28 hivel=41
<region> sample=Hihat_OpenFullBow_A_vel04_mic-Overhead_R.wav lovel=42 hivel=55
<region> sample=Hihat_OpenFullBow_A_vel05_mic-Overhead_R.wav lovel=56 hivel=69
<region> sample=Hihat_OpenFullBow_A_vel06_mic-Overhead_R.wav lovel=70 hivel=83
<region> sample=Hihat_OpenFullBow_A_vel07_mic-Overhead_R.wav lovel=84 hivel=97
<region> sample=Hihat_OpenFullBow_A_vel08_mic-Overhead_R.wav lovel=98 hivel=111
<region> sample=Hihat_OpenFullBow_A_vel09_mic-Overhead_R.wav lovel=112 hivel=127
<group> off_by=1 seq_position=2 output=2 locc4=100 // Round-Robin: B
<region> sample=Hihat_OpenFullBow_B_vel01_mic-Overhead_R.wav lovel=0 hivel=13
<region> sample=Hihat_OpenFullBow_B_vel02_mic-Overhead_R.wav lovel=14 hivel=27
<region> sample=Hihat_OpenFullBow_B_vel03_mic-Overhead_R.wav lovel=28 hivel=41
<region> sample=Hihat_OpenFullBow_B_vel04_mic-Overhead_R.wav lovel=42 hivel=55
<region> sample=Hihat_OpenFullBow_B_vel05_mic-Overhead_R.wav lovel=56 hivel=69
<region> sample=Hihat_OpenFullBow_B_vel06_mic-Overhead_R.wav lovel=70 hivel=83
<region> sample=Hihat_OpenFullBow_B_vel07_mic-Overhead_R.wav lovel=84 hivel=97
<region> sample=Hihat_OpenFullBow_B_vel08_mic-Overhead_R.wav lovel=98 hivel=111
<region> sample=Hihat_OpenFullBow_B_vel09_mic-Overhead_R.wav lovel=112 hivel=127